# xmcd
#
# Track frame offsets: 
#        150
#        18863
#        32661
#        55846
#        80988
#        105983
#        146255
#        179215
#        198278
#        231006
#        278253
#        308408
#
# Disc length: 4278 seconds
#
# Revision: 0
# Processed by: cddbd v1.5.2PL0 Copyright (c) Steve Scherf et al.
# Submitted via: ExactAudioCopy v1.0b3
#
DISCID=9110b40c
DTITLE=Lubo코 Andr코t - One Man Blues
DYEAR=2013
DGENRE=Blues
TTITLE0=Good Time Boogie
TTITLE1=Rockin' Blues
TTITLE2=Rock Me Baby
TTITLE3=Blues Time
TTITLE4=I've Got My Mojo Working
TTITLE5=Everything I've Done
TTITLE6=No More Excuses
TTITLE7=Shuffle One's Feet
TTITLE8=Blues O neistom n치vrate
TTITLE9=R치no
TTITLE10=Spain
TTITLE11=One Man Blues
EXTD=
EXTT0=
EXTT1=
EXTT2=
EXTT3=
EXTT4=
EXTT5=
EXTT6=
EXTT7=
EXTT8=
EXTT9=
EXTT10=
EXTT11=
PLAYORDER=
